<?xml version="1.0" encoding="UTF-8" standalone="no"?><!DOCTYPE svg PUBLIC "-//W3C//DTD SVG 1.1//EN" "http://www.w3.org/Graphics/SVG/1.1/DTD/svg11.dtd"><svg width="100%" height="100%" viewBox="0 0 370 145" version="1.1" xmlns="http://www.w3.org/2000/svg" xmlns:xlink="http://www.w3.org/1999/xlink" xml:space="preserve" xmlns:serif="http://www.serif.com/" style="fill-rule:evenodd;clip-rule:evenodd;stroke-linejoin:round;stroke-miterlimit:2;"><g><g><path d="M95.22,9.564c-7.23,0 -11.098,4.087 -13.811,14.621l-4.354,14.803l-37.739,0l-4.275,-14.803c-2.712,-10.266 -6.903,-14.621 -14.138,-14.621c-7.811,0 -12.909,5.084 -12.909,12.984c0,3.177 0.739,6.814 2.222,11.898l24.746,80.378c4.518,14.803 10.766,20.615 22.609,20.615c11.837,0 18.249,-5.905 22.688,-20.615l24.83,-80.378c1.889,-6.086 2.628,-9.537 2.628,-12.534c0,-7.264 -5.098,-12.348 -12.497,-12.348Zm-23.759,51.129l-12.74,46.955l-1.314,0l-12.581,-46.955l26.635,0Z" style="fill:#e0dbea;fill-rule:nonzero;"/></g><g><path d="M143.684,119.5c0,10.171 5.358,15.984 14.894,15.984c9.446,0 14.804,-5.722 14.804,-15.984l0,-91.729c0,-11.08 -7.084,-18.255 -17.71,-18.255c-6.085,0 -12.533,2.089 -19.617,6.63l-14.804,9.899c-5.358,3.361 -8.083,7.357 -8.083,11.807c0,5.994 4.36,10.354 10.354,10.354c2.997,0 5.54,-0.909 10.262,-3.906l9.537,-6.448l0.363,0l0,81.648Z" style="fill:#e0dbea;fill-rule:nonzero;"/></g><g><path d="M213.684,119.5c0,10.171 5.358,15.984 14.894,15.984c9.446,0 14.804,-5.722 14.804,-15.984l0,-91.729c0,-11.08 -7.084,-18.255 -17.71,-18.255c-6.085,0 -12.533,2.089 -19.617,6.63l-14.804,9.899c-5.358,3.361 -8.083,7.357 -8.083,11.807c0,5.994 4.36,10.354 10.354,10.354c2.997,0 5.54,-0.909 10.262,-3.906l9.537,-6.448l0.363,0l0,81.648Z" style="fill:#e0dbea;fill-rule:nonzero;"/></g><g><path d="M311.145,135.484c9.082,0 15.167,-6.176 14.895,-15.076l-0.545,-32.423l31.515,-52.222c3.542,-5.903 4.995,-9.627 4.995,-13.26c0,-7.356 -5.813,-12.987 -13.442,-12.987c-5.994,0 -10.807,3.633 -14.622,10.989l-22.342,41.415l-1.089,0l-21.706,-41.505c-3.997,-7.72 -8.174,-10.899 -14.623,-10.899c-8.264,0 -13.895,5.449 -13.895,13.532c0,3.542 1.271,7.084 4.359,12.261l31.969,52.676l-0.636,32.423c-0.272,8.9 5.904,15.076 15.167,15.076Z" style="fill:#a495c3;fill-rule:nonzero;"/></g></g></svg>