<?xml version="1.0" encoding="UTF-8" standalone="no"?><!DOCTYPE svg PUBLIC "-//W3C//DTD SVG 1.1//EN" "http://www.w3.org/Graphics/SVG/1.1/DTD/svg11.dtd"><svg width="100%" height="100%" viewBox="0 0 153 30" version="1.1" xmlns="http://www.w3.org/2000/svg" xmlns:xlink="http://www.w3.org/1999/xlink" xml:space="preserve" xmlns:serif="http://www.serif.com/" style="fill-rule:evenodd;clip-rule:evenodd;stroke-linejoin:round;stroke-miterlimit:2;"><g><path d="M9.06,8.498l-2.405,0c-0.196,0 -0.385,-0.03 -0.562,-0.087l0,9.889c0.177,-0.057 0.366,-0.087 0.562,-0.087l2.405,0c1.018,0 1.844,0.825 1.844,1.843l0,1.203c0,3.006 -2.446,5.452 -5.452,5.452c-3.006,0 -5.452,-2.446 -5.452,-5.452l0,-15.807c0,-3.006 2.446,-5.452 5.452,-5.452c3.006,0 5.452,2.446 5.452,5.452c0,0 0,1.203 0,1.203c0,1.018 -0.826,1.843 -1.844,1.843Zm-2.405,11.215c-0.19,0 -0.344,0.154 -0.344,0.343l0,1.203c0,0.474 -0.385,0.859 -0.859,0.859c-0.474,0 -0.859,-0.385 -0.859,-0.859l0,-15.807c0,-0.474 0.385,-0.859 0.859,-0.859c0.474,0 0.859,0.385 0.859,0.859l0,1.203c0,0.189 0.154,0.343 0.344,0.343l2.405,0c0.19,0 0.344,-0.154 0.344,-0.343l0,-1.203c0,-2.179 -1.773,-3.952 -3.952,-3.952c-2.179,0 -3.952,1.773 -3.952,3.952l0,15.807c0,2.179 1.773,3.952 3.952,3.952c2.179,0 3.952,-1.773 3.952,-3.952l0,-1.203c0,-0.189 -0.154,-0.343 -0.344,-0.343l-2.405,0Z" style="fill:#ffcf7c;"/><path d="M23.02,21.259l0,-15.807c0,-3.006 -2.446,-5.452 -5.452,-5.452c-3.006,0 -5.452,2.446 -5.452,5.452l0,15.807c0,3.006 2.446,5.452 5.452,5.452c3.006,0 5.452,-2.446 5.452,-5.452Zm-1.5,0l0,-15.807c0,-2.179 -1.773,-3.952 -3.952,-3.952c-2.179,0 -3.952,1.773 -3.952,3.952l0,15.807c0,2.179 1.773,3.952 3.952,3.952c2.179,0 3.952,-1.773 3.952,-3.952Zm-3.093,-15.807l0,15.807c0,0.474 -0.385,0.859 -0.859,0.859c-0.474,0 -0.859,-0.385 -0.859,-0.859l0,-15.807c0,-0.474 0.385,-0.859 0.859,-0.859c0.474,0 0.859,0.385 0.859,0.859Z" style="fill:#ffcf7c;"/><path d="M30.528,0.447c0.333,-0.287 0.76,-0.447 1.203,-0.447c0,0 2.405,0 2.405,0c1.018,0 1.844,0.825 1.844,1.843c0,0 0.002,23.024 0.002,23.024c0,0.489 -0.194,0.959 -0.54,1.304c-0.346,0.346 -0.815,0.54 -1.303,0.54l-2.406,0c-0.455,0 -0.878,-0.166 -1.203,-0.447c-0.322,0.279 -0.743,0.447 -1.202,0.447c0,0 -2.406,0 -2.406,0c-1.018,0 -1.843,-0.825 -1.843,-1.843c0,0 -0.003,-23.024 -0.003,-23.024c0,-0.489 0.195,-0.959 0.541,-1.304c0.346,-0.346 0.814,-0.54 1.303,-0.54c0,0 2.405,0 2.405,0c0.456,0 0.878,0.167 1.203,0.447Zm3.611,24.764c0.091,0 0.178,-0.036 0.243,-0.101c0.064,-0.064 0.1,-0.152 0.1,-0.243l-0.002,-23.023c0,-0.19 -0.154,-0.344 -0.344,-0.344l-2.405,0c-0.091,0 -0.179,0.036 -0.243,0.101c-0.065,0.064 -0.101,0.152 -0.101,0.243l0.001,8.96l-1.725,-9.025c-0.031,-0.162 -0.173,-0.279 -0.338,-0.279l-2.405,0c-0.091,0 -0.179,0.036 -0.243,0.101c-0.064,0.064 -0.101,0.152 -0.101,0.243l0.003,23.023c0,0.19 0.153,0.344 0.343,0.344l2.406,0c0.189,0 0.343,-0.154 0.343,-0.344l0,-9.138l1.724,9.202c0.031,0.162 0.173,0.28 0.338,0.28l2.406,0Z" style="fill:#ffcf7c;"/><path d="M45.894,8.498c1.45,0.958 3.046,2.497 3.046,5.717l0,7.044c0,3.006 -2.446,5.452 -5.452,5.452c-3.006,0 -5.452,-2.446 -5.452,-5.452c0,0 0,-1.203 0,-1.203c0,-1.018 0.825,-1.843 1.844,-1.843l2.405,0c0.196,0 0.385,0.03 0.562,0.087l0,-4.085c0,-0.19 0.014,-0.327 -0.046,-0.431c-0.148,-0.251 -0.461,-0.332 -0.85,-0.558c-1.584,-0.921 -3.915,-2.352 -3.915,-6.228l0,-1.546c0,-3.006 2.446,-5.452 5.452,-5.452c3.006,0 5.452,2.446 5.452,5.452l0,1.203c0,1.018 -0.825,1.843 -1.844,1.843l-1.202,0Zm-6.014,11.215c-0.19,0 -0.344,0.154 -0.344,0.343l0,1.203c0,2.179 1.773,3.952 3.952,3.952c2.179,0 3.952,-1.773 3.952,-3.952l0,-7.044c0,-3.11 -1.914,-4.223 -3.18,-4.959c-1.12,-0.651 -1.631,-0.949 -1.631,-2.258l0,-1.546c0,-0.474 0.385,-0.859 0.859,-0.859c0.474,0 0.859,0.385 0.859,0.859l0,1.203c0,0.189 0.154,0.343 0.344,0.343l2.405,0c0.19,0 0.344,-0.154 0.344,-0.343l0,-1.203c0,-2.179 -1.773,-3.952 -3.952,-3.952c-2.179,0 -3.952,1.773 -3.952,3.952l0,1.546c0,3.088 1.907,4.197 3.169,4.931c1.128,0.656 1.642,0.955 1.642,2.286l0,7.044c0,0.474 -0.385,0.859 -0.859,0.859c-0.474,0 -0.859,-0.385 -0.859,-0.859l0,-1.203c0,-0.189 -0.154,-0.343 -0.344,-0.343l-2.405,0Z" style="fill:#ffcf7c;"/><path d="M58.649,6.093l0.002,18.774c-0.025,1.005 -0.821,1.843 -1.844,1.844c-1.182,0.001 -3.096,0.427 -3.934,-0.813c-0.083,-0.123 -0.152,-0.257 -0.203,-0.397c-0.075,-0.205 -0.106,-0.416 -0.112,-0.633l-0.002,-18.775l-0.56,0c-1.018,0 -1.843,-0.825 -1.843,-1.844c0,0 0,-2.405 0,-2.405c0,-1.019 0.825,-1.844 1.843,-1.844l7.217,0c1.018,0 1.843,0.825 1.843,1.844c0,0 0,2.405 0,2.405c0,1.019 -0.825,1.844 -1.843,1.844l-0.564,0Zm0.564,-4.593l-7.217,0c-0.19,0 -0.343,0.154 -0.343,0.344l0,2.405c0,0.19 0.153,0.344 0.343,0.344l2.06,0l0.002,20.275c0,0.189 0.154,0.343 0.344,0.343l2.405,0c0.091,0 0.179,-0.036 0.243,-0.101c0.065,-0.064 0.101,-0.152 0.101,-0.243l-0.002,-20.274l2.064,0c0.189,0 0.343,-0.154 0.343,-0.344l0,-2.405c0,-0.19 -0.154,-0.344 -0.343,-0.344Z" style="fill:#ffcf7c;"/><path d="M66.552,26.711l-2.406,0c-1.018,0 -1.843,-0.825 -1.843,-1.844c0,0 0,-23.023 0,-23.023c0,-1.019 0.825,-1.844 1.843,-1.844l3.605,0c3.006,0 5.452,2.446 5.452,5.452c0,0 0.001,7.559 0.001,7.56c0,1.558 -0.674,3.023 -1.799,4.042l2.129,7.298c0.302,1.165 -0.535,2.358 -1.77,2.359l-2.506,0c-0.504,0 -0.97,-0.209 -1.325,-0.562l-0.028,-0.03c-0.337,0.364 -0.818,0.592 -1.353,0.592Zm1.199,-25.211l-3.605,0c-0.19,0 -0.343,0.154 -0.343,0.344l0,23.023c0,0.19 0.153,0.344 0.343,0.344l2.406,0c0.189,0 0.343,-0.154 0.343,-0.344l0,-6.873l2.033,6.97c0.043,0.146 0.177,0.247 0.33,0.247l2.506,0c0.108,0 0.21,-0.051 0.274,-0.137c0.065,-0.087 0.086,-0.199 0.055,-0.303l-2.422,-8.306c1.244,-0.694 2.033,-2.018 2.033,-3.453l-0.001,-7.56c0,-2.179 -1.773,-3.952 -3.952,-3.952Zm0.002,12.371l-0.858,0l0,-9.278l0.856,0c0.474,0 0.859,0.385 0.859,0.859l0.002,7.56c0,0.474 -0.386,0.859 -0.859,0.859Z" style="fill:#ffcf7c;"/><path d="M79.275,0c0.46,0 0.881,0.168 1.203,0.447c0.323,-0.279 0.743,-0.447 1.203,-0.447l2.405,0c1.019,0 1.844,0.825 1.844,1.844l0,19.415c0,3.006 -2.446,5.452 -5.452,5.452c-3.006,0 -5.452,-2.446 -5.452,-5.452c0,0 0,-19.415 0,-19.415c0,-1.019 0.826,-1.844 1.844,-1.844l2.405,0Zm0,1.5l-2.405,0c-0.19,0 -0.344,0.154 -0.344,0.344l0,19.415c0,2.179 1.773,3.952 3.952,3.952c2.179,0 3.952,-1.773 3.952,-3.952l0,-19.415c0,-0.19 -0.154,-0.344 -0.344,-0.344l-2.405,0c-0.19,0 -0.344,0.154 -0.344,0.344l0,19.415c0,0.474 -0.385,0.859 -0.859,0.859c-0.474,0 -0.859,-0.385 -0.859,-0.859l0,-19.415c0,-0.19 -0.154,-0.344 -0.344,-0.344Z" style="fill:#ffcf7c;"/><path d="M97.08,8.498l-2.405,0c-0.196,0 -0.385,-0.03 -0.562,-0.087l0,9.889c0.177,-0.057 0.366,-0.087 0.562,-0.087l2.405,0c1.018,0 1.844,0.825 1.844,1.843l0,1.203c0,3.006 -2.446,5.452 -5.452,5.452c-3.006,0 -5.452,-2.446 -5.452,-5.452l0,-15.807c0,-3.006 2.446,-5.452 5.452,-5.452c3.006,0 5.452,2.446 5.452,5.452c0,0 0,1.203 0,1.203c0,1.018 -0.826,1.843 -1.844,1.843Zm-2.405,11.215c-0.19,0 -0.344,0.154 -0.344,0.343l0,1.203c0,0.474 -0.385,0.859 -0.859,0.859c-0.474,0 -0.859,-0.385 -0.859,-0.859l0,-15.807c0,-0.474 0.385,-0.859 0.859,-0.859c0.474,0 0.859,0.385 0.859,0.859l0,1.203c0,0.189 0.154,0.343 0.344,0.343l2.405,0c0.19,0 0.344,-0.154 0.344,-0.343l0,-1.203c0,-2.179 -1.773,-3.952 -3.952,-3.952c-2.179,0 -3.952,1.773 -3.952,3.952l0,15.807c0,2.179 1.773,3.952 3.952,3.952c2.179,0 3.952,-1.773 3.952,-3.952l0,-1.203c0,-0.189 -0.154,-0.343 -0.344,-0.343l-2.405,0Z" style="fill:#ffcf7c;"/><path d="M108.295,6.093l0.002,18.774c-0.025,1.005 -0.821,1.843 -1.843,1.844c-1.182,0.001 -3.097,0.427 -3.935,-0.813c-0.083,-0.123 -0.151,-0.257 -0.203,-0.397c-0.075,-0.205 -0.106,-0.416 -0.112,-0.633l-0.001,-18.775l-0.561,0c-1.018,0 -1.843,-0.825 -1.843,-1.844c0,0 0,-2.405 0,-2.405c0,-1.019 0.825,-1.844 1.843,-1.844l7.217,0c1.018,0 1.843,0.825 1.843,1.844c0,0 0,2.405 0,2.405c0,1.019 -0.825,1.844 -1.843,1.844l-0.564,0Zm0.564,-4.593l-7.217,0c-0.189,0 -0.343,0.154 -0.343,0.344l0,2.405c0,0.19 0.154,0.344 0.343,0.344l2.06,0l0.002,20.275c0,0.189 0.154,0.343 0.344,0.343l2.406,0c0.091,0 0.178,-0.036 0.243,-0.101c0.064,-0.064 0.1,-0.152 0.1,-0.243l-0.002,-20.274l2.064,0c0.19,0 0.343,-0.154 0.343,-0.344l0,-2.405c0,-0.19 -0.153,-0.344 -0.343,-0.344Z" style="fill:#ffcf7c;"/><path d="M118.605,26.711l-4.811,0c-1.018,0 -1.843,-0.825 -1.843,-1.844l0,-2.405c0,-0.793 0.5,-1.468 1.201,-1.729l0,-14.754c-0.702,-0.26 -1.203,-0.937 -1.203,-1.73l0,-2.405c0,-1.019 0.825,-1.844 1.843,-1.844l4.811,0c1.019,0 1.844,0.825 1.844,1.844l0,2.405c0,0.793 -0.5,1.468 -1.202,1.729l0,14.754c0.703,0.26 1.204,0.937 1.204,1.73l0,2.406c0,1.018 -0.826,1.843 -1.844,1.843Zm-0.002,-25.211l-4.811,0c-0.189,0 -0.343,0.154 -0.343,0.344l0,2.405c0,0.19 0.154,0.344 0.343,0.344l0.86,0l0,17.525l-0.858,0c-0.189,0 -0.343,0.154 -0.343,0.344l0,2.405c0,0.19 0.154,0.344 0.343,0.344l4.811,0c0.19,0 0.344,-0.154 0.344,-0.344l0,-2.405c0,-0.19 -0.154,-0.344 -0.344,-0.344l-0.86,0l0,-17.525l0.858,0c0.19,0 0.344,-0.154 0.344,-0.344l0,-2.405c0,-0.19 -0.154,-0.344 -0.344,-0.344Z" style="fill:#ffcf7c;"/><path d="M128.818,26.711l-2.386,0c-0.929,0 -1.713,-0.691 -1.829,-1.612c0,0 -2.92,-23.023 -2.92,-23.023c-0.066,-0.525 0.096,-1.054 0.446,-1.451c0.35,-0.397 0.854,-0.625 1.383,-0.625l2.425,0c0.749,0 1.403,0.449 1.689,1.105c0.287,-0.656 0.941,-1.105 1.69,-1.105l2.424,0c0.53,0 1.034,0.228 1.384,0.625c0.349,0.397 0.512,0.926 0.445,1.451l-2.922,23.023c-0.117,0.922 -0.9,1.612 -1.829,1.612Zm-2.881,-25.211l-2.425,0c-0.098,0 -0.192,0.042 -0.257,0.117c-0.066,0.074 -0.096,0.172 -0.084,0.27l2.92,23.024c0.022,0.171 0.168,0.3 0.341,0.3l2.386,0c0.173,0 0.32,-0.129 0.341,-0.3l2.922,-23.024c0.013,-0.098 -0.018,-0.196 -0.083,-0.27c-0.065,-0.075 -0.159,-0.117 -0.258,-0.117l-2.424,0c-0.174,0 -0.32,0.129 -0.341,0.3l-1.375,10.835l-1.322,-10.833c-0.021,-0.172 -0.167,-0.302 -0.341,-0.302Z" style="fill:#ffcf7c;"/><path d="M143.033,26.711l-6.392,0c-1.018,0 -1.843,-0.825 -1.843,-1.844l0,-23.023c0,-1.019 0.825,-1.844 1.843,-1.844l6.392,0c1.018,0 1.843,0.825 1.843,1.844c0,0 0,2.405 0,2.405c0,1.019 -0.825,1.844 -1.843,1.844l-2.143,0l0,1.467l0.562,0c1.018,0 1.844,0.825 1.844,1.844c0,0 0,2.405 0,2.405c0,1.019 -0.826,1.844 -1.844,1.844l-0.562,0l0,6.965l2.143,0c1.018,0 1.843,0.826 1.843,1.844l0,2.405c0,1.019 -0.825,1.844 -1.843,1.844Zm0,-25.211l-6.392,0c-0.19,0 -0.343,0.154 -0.343,0.344l0,23.023c0,0.19 0.153,0.344 0.343,0.344l6.392,0c0.19,0 0.343,-0.154 0.343,-0.344l0,-2.405c0,-0.19 -0.153,-0.344 -0.343,-0.344l-3.643,0l0,-9.965l2.062,0c0.19,0 0.344,-0.154 0.344,-0.344l0,-2.405c0,-0.19 -0.154,-0.344 -0.344,-0.344l-2.062,0l0,-4.467l3.643,0c0.19,0 0.343,-0.154 0.343,-0.344l0,-2.405c0,-0.19 -0.153,-0.344 -0.343,-0.344Z" style="fill:#ffcf7c;"/></g></svg>