<?xml version="1.0" encoding="UTF-8" standalone="no"?><!DOCTYPE svg PUBLIC "-//W3C//DTD SVG 1.1//EN" "http://www.w3.org/Graphics/SVG/1.1/DTD/svg11.dtd"><svg width="100%" height="100%" viewBox="0 0 136 51" version="1.1" xmlns="http://www.w3.org/2000/svg" xmlns:xlink="http://www.w3.org/1999/xlink" xml:space="preserve" xmlns:serif="http://www.serif.com/" style="fill-rule:evenodd;clip-rule:evenodd;stroke-linejoin:round;stroke-miterlimit:2;"><g><path d="M0,19.842c1.239,0.642 2.755,0.708 4.548,0.198l1.556,-19.393c-1.547,-0.448 -2.988,-0.514 -4.324,-0.198l-1.78,19.393Z" style="fill:#bbc4f2;fill-rule:nonzero;"/><path d="M8.754,1.175l-1.134,18.522c0.967,0.695 2.395,0.8 4.285,0.317l0.738,-10.784l5.893,10.757c1.547,0.616 2.769,0.519 3.665,-0.29l1.134,-18.799c-1.248,-0.677 -2.549,-0.686 -3.902,-0.027l-0.633,10.389l-6.276,-10.639c-1.889,-0.492 -3.146,-0.308 -3.77,0.554Z" style="fill:#bbc4f2;fill-rule:nonzero;"/><path d="M39.683,2.216c0.307,1.582 -0.106,2.848 -1.24,3.797c-0.764,-0.492 -1.964,-0.883 -3.599,-1.173c-1.432,-0.141 -2.601,0.274 -3.507,1.245c-0.905,0.972 -1.459,2.231 -1.661,3.777c-0.299,0.976 -0.114,2.229 0.554,3.758c0.668,1.388 1.685,2.122 3.052,2.201c1.367,0.08 3.004,-0.188 4.911,-0.804c0.685,1.354 0.751,2.681 0.198,3.982c-2.259,1.037 -4.092,1.529 -5.498,1.476c-2.593,-0.325 -4.482,-1.265 -5.669,-2.821c-1.582,-2.083 -2.118,-5.023 -1.608,-8.82c0.404,-3.006 1.358,-5.278 2.861,-6.816c1.96,-1.591 4.337,-2.241 7.132,-1.951c1.942,0.123 3.3,0.839 4.074,2.149Z" style="fill:#bbc4f2;fill-rule:nonzero;"/><path d="M47.184,0.449c-1.934,-0.342 -3.414,-0.254 -4.443,0.264l-1.081,18.76c0.088,0.484 0.321,0.761 0.699,0.831l11.483,-0.422c0.931,-1.371 1.033,-2.834 0.303,-4.39l-7.91,0.211l0.949,-15.254Z" style="fill:#bbc4f2;fill-rule:nonzero;"/><path d="M57.81,0.634c1.582,-0.308 3.089,-0.286 4.522,0.066c-0.536,6.978 -0.784,11.032 -0.745,12.162c0.04,1.129 0.275,1.99 0.705,2.584c0.431,0.593 1.167,0.89 2.209,0.89c1.041,0 1.758,-0.321 2.149,-0.963c0.391,-0.641 0.639,-1.483 0.745,-2.524c0.105,-1.042 0.285,-5.105 0.54,-12.189c1.283,-0.325 2.742,-0.334 4.377,-0.026c-0.422,9.395 -0.892,14.676 -1.411,15.84c-0.518,1.165 -1.309,2.105 -2.373,2.821c-1.063,0.717 -2.456,1.075 -4.179,1.075c-1.723,0 -3.232,-0.433 -4.528,-1.299c-1.297,-0.865 -2.132,-2.12 -2.505,-3.764c-0.374,-1.643 -0.209,-6.534 0.494,-14.673Z" style="fill:#bbc4f2;fill-rule:nonzero;"/><path d="M74.685,18.01c-0.571,-1.995 -0.237,-3.542 1.002,-4.641c2.259,1.327 3.898,2.145 4.917,2.452c1.899,-0.017 2.94,-0.492 3.125,-1.423c0.044,-0.747 -0.536,-1.468 -1.74,-2.162l-3.388,-1.648c-2.119,-1.125 -3.217,-2.712 -3.296,-4.76c0.079,-1.177 0.485,-2.236 1.219,-3.177c0.734,-0.94 1.56,-1.558 2.479,-1.852c0.918,-0.295 2.01,-0.402 3.276,-0.323c2.32,0.14 4.355,0.8 6.104,1.977c0.07,1.661 -0.448,3.107 -1.556,4.338c-2.136,-1.6 -3.845,-2.347 -5.128,-2.241c-1.204,-0.141 -1.842,0.29 -1.912,1.292c-0.044,0.571 0.804,1.309 2.545,2.214c1.995,0.809 3.473,1.736 4.436,2.782c0.962,1.046 1.391,2.316 1.285,3.81c-0.14,2.022 -1.081,3.573 -2.821,4.654c-1.107,0.773 -2.707,1.094 -4.799,0.962c-1.995,-0.255 -3.911,-1.006 -5.748,-2.254Z" style="fill:#bbc4f2;fill-rule:nonzero;"/><path d="M90.004,19.842c1.24,0.642 2.756,0.708 4.549,0.198l1.555,-19.393c-1.546,-0.448 -2.988,-0.514 -4.324,-0.198l-1.78,19.393Z" style="fill:#bbc4f2;fill-rule:nonzero;"/><path d="M114.42,0.449l-7.514,19.367c-1.573,0.712 -3.072,0.725 -4.496,0.04l-4.785,-19.407c1.634,-0.281 3.282,-0.281 4.943,0l2.518,13.87l4.298,-13.87c1.626,-0.263 3.305,-0.263 5.036,0Z" style="fill:#bbc4f2;fill-rule:nonzero;"/><path d="M117.743,0.66c-0.317,0.15 -0.523,0.396 -0.62,0.739l-1.186,18.074c0.087,0.484 0.32,0.761 0.698,0.831l12.327,-0.488c0.932,-1.362 1.033,-2.821 0.303,-4.377l-8.846,0.264l0.356,-4.087l7.211,-0.303c0.765,-1.143 0.818,-2.356 0.159,-3.639l-7.08,0.145l0.237,-3.375l8.622,-0.277c0.58,-1.204 0.655,-2.496 0.224,-3.876l-12.405,0.369Z" style="fill:#bbc4f2;fill-rule:nonzero;"/><path d="M28.951,28.451l-1.331,19.565l4.258,0.039l0.699,-9.479l2.162,8.886c0.518,0.58 1.112,0.703 1.78,0.369l4.034,-9.176l-0.541,9.361l4.285,-0.04l1.2,-19.551c-1.178,-0.308 -2.4,-0.299 -3.665,0.026l-5.419,11.101l-3.072,-11.074c-1.828,-0.501 -3.291,-0.51 -4.39,-0.027Z" style="fill:#bbc4f2;fill-rule:nonzero;"/><path d="M48.067,28.517c1.582,-0.307 3.09,-0.285 4.522,0.066c-0.536,6.979 -0.784,11.033 -0.745,12.162c0.04,1.129 0.275,1.991 0.706,2.584c0.43,0.593 1.167,0.89 2.208,0.89c1.042,0 1.758,-0.321 2.149,-0.962c0.391,-0.642 0.639,-1.484 0.745,-2.525c0.105,-1.042 0.286,-5.104 0.54,-12.188c1.284,-0.326 2.743,-0.334 4.377,-0.027c-0.422,9.396 -0.892,14.676 -1.41,15.84c-0.519,1.165 -1.31,2.105 -2.373,2.822c-1.064,0.716 -2.457,1.074 -4.18,1.074c-1.722,0 -3.232,-0.433 -4.528,-1.298c-1.297,-0.866 -2.131,-2.121 -2.505,-3.764c-0.374,-1.644 -0.209,-6.535 0.494,-14.674Z" style="fill:#bbc4f2;fill-rule:nonzero;"/><path d="M64.942,45.893c-0.571,-1.995 -0.237,-3.542 1.002,-4.64c2.259,1.327 3.898,2.144 4.918,2.452c1.898,-0.018 2.94,-0.492 3.124,-1.424c0.044,-0.747 -0.536,-1.468 -1.74,-2.162l-3.388,-1.648c-2.118,-1.125 -3.217,-2.712 -3.296,-4.759c0.079,-1.178 0.486,-2.237 1.219,-3.178c0.734,-0.94 1.561,-1.557 2.479,-1.852c0.918,-0.294 2.011,-0.402 3.276,-0.323c2.32,0.141 4.355,0.8 6.104,1.978c0.07,1.661 -0.448,3.107 -1.556,4.337c-2.135,-1.6 -3.845,-2.347 -5.128,-2.241c-1.204,-0.141 -1.841,0.29 -1.912,1.292c-0.044,0.571 0.805,1.309 2.545,2.215c1.995,0.808 3.474,1.735 4.436,2.781c0.963,1.046 1.391,2.316 1.286,3.81c-0.141,2.022 -1.082,3.573 -2.822,4.654c-1.107,0.774 -2.707,1.094 -4.799,0.963c-1.995,-0.255 -3.911,-1.007 -5.748,-2.255Z" style="fill:#bbc4f2;fill-rule:nonzero;"/><path d="M80.262,47.726c1.239,0.641 2.755,0.707 4.548,0.198l1.556,-19.394c-1.547,-0.448 -2.989,-0.514 -4.324,-0.197l-1.78,19.393Z" style="fill:#bbc4f2;fill-rule:nonzero;"/><path d="M102.713,30.099c0.308,1.582 -0.105,2.848 -1.239,3.797c-0.765,-0.492 -1.964,-0.883 -3.599,-1.173c-1.433,-0.141 -2.602,0.275 -3.507,1.246c-0.905,0.971 -1.459,2.23 -1.661,3.777c-0.299,0.975 -0.114,2.228 0.554,3.757c0.668,1.389 1.685,2.123 3.052,2.202c1.366,0.079 3.003,-0.189 4.911,-0.804c0.685,1.353 0.751,2.68 0.197,3.981c-2.258,1.037 -4.091,1.529 -5.497,1.477c-2.593,-0.326 -4.483,-1.266 -5.669,-2.822c-1.582,-2.083 -2.118,-5.023 -1.609,-8.82c0.405,-3.005 1.358,-5.277 2.861,-6.815c1.96,-1.591 4.338,-2.242 7.133,-1.952c1.942,0.123 3.3,0.84 4.073,2.149Z" style="fill:#bbc4f2;fill-rule:nonzero;"/></g></svg>